<svg width="156" height="145" viewBox="0 0 156 145" fill="none" xmlns="http://www.w3.org/2000/svg">
<g clip-path="url(#clip0)">
<path d="M142.123 116.168L129.46 97.2488C129.46 97.2488 148.638 103.983 146.461 116.168H142.123Z" fill="#FFF7E6"/>
<path d="M10.8557 116.294L10.375 116.284C10.5609 110.908 11.1312 105.552 12.0815 100.258C14.1604 88.9242 17.6171 81.4805 22.3557 78.134L22.6317 78.5297C11.5623 86.3469 10.8614 115.995 10.8557 116.294Z" fill="#FFF7E6"/>
<path d="M16.865 116.178L16.3843 116.168C16.3946 115.633 16.6951 103.013 21.6346 99.5249L21.9107 99.9206C17.1704 103.268 16.8674 116.049 16.865 116.178Z" fill="#FFF7E6"/>
<path d="M25.3666 78.5738C26.6941 78.5738 27.7703 77.4914 27.7703 76.1562C27.7703 74.8209 26.6941 73.7385 25.3666 73.7385C24.0391 73.7385 22.9629 74.8209 22.9629 76.1562C22.9629 77.4914 24.0391 78.5738 25.3666 78.5738Z" fill="#0037DB"/>
<path d="M24.1762 99.3653C25.5037 99.3653 26.5799 98.2829 26.5799 96.9477C26.5799 95.6124 25.5037 94.53 24.1762 94.53C22.8486 94.53 21.7725 95.6124 21.7725 96.9477C21.7725 98.2829 22.8486 99.3653 24.1762 99.3653Z" fill="#0037DB"/>
<path d="M15.7446 80.0227C16.1964 82.9248 15.019 85.5206 15.019 85.5206C15.019 85.5206 13.1092 83.411 12.6574 80.5088C12.2057 77.6067 13.3831 75.011 13.3831 75.011C13.3831 75.011 15.2929 77.1206 15.7446 80.0227Z" fill="#FFF7E6"/>
<path d="M23.6013 87.0714C20.8387 88.0245 18.0923 87.3106 18.0923 87.3106C18.0923 87.3106 19.8249 85.0516 22.5874 84.0985C25.35 83.1454 28.0964 83.8592 28.0964 83.8592C28.0964 83.8592 26.3638 86.1183 23.6013 87.0714Z" fill="#FFF7E6"/>
<path d="M23.6905 105.484C22.4401 105.879 21.1086 105.937 19.8291 105.652C20.6415 104.612 21.7357 103.83 22.9798 103.4C24.2239 102.971 25.5649 102.913 26.8412 103.233C26.0051 104.248 24.9186 105.024 23.6905 105.484Z" fill="#FFF7E6"/>
<path d="M155.76 116.652H0.24037C0.17662 116.652 0.115484 116.626 0.0704062 116.581C0.0253281 116.535 0 116.474 0 116.41C0 116.346 0.0253281 116.284 0.0704062 116.239C0.115484 116.193 0.17662 116.168 0.24037 116.168H155.76C155.823 116.168 155.885 116.193 155.93 116.239C155.975 116.284 156 116.346 156 116.41C156 116.474 155.975 116.535 155.93 116.581C155.885 116.626 155.823 116.652 155.76 116.652Z" fill="#CBCBCB"/>
<path d="M98.5015 127.797L96.535 132.945L75.8574 127.765L78.7596 120.167L98.5015 127.797Z" fill="#FFCC66"/>
<path d="M103.964 128.401L97.6236 145L97.4149 144.919C95.7113 144.261 94.3375 142.949 93.5957 141.272C92.8538 139.595 92.8047 137.69 93.4591 135.976L93.4592 135.976L97.332 125.838L103.964 128.401Z" fill="#16181D"/>
<path d="M67.0811 63.3401L58.0701 64.1887L57.623 91.1556C57.7425 92.4772 58.3718 93.6992 59.376 94.5599C60.3803 95.4205 61.6798 95.8514 62.9961 95.7602L68.7092 95.3643L67.0811 63.3401Z" fill="#FFF7E6"/>
<path d="M98.8488 62.0129L92.6831 61.9331L92.3179 93.9754C93.6803 94.0211 95.0376 93.784 96.3049 93.2788C97.5722 92.7736 98.7224 92.0111 99.6838 91.039C100.645 90.0669 101.397 88.906 101.893 87.6286C102.388 86.3513 102.617 84.985 102.564 83.6148L98.8488 62.0129Z" fill="#FFF7E6"/>
<path d="M63.0732 105.358C62.9272 106.288 62.7152 107.206 62.439 108.105C62.1278 108.984 61.6475 109.798 61.363 110.687C60.4563 113.521 61.7133 116.681 63.721 118.868C65.4621 120.757 67.7095 122.1 70.1921 122.733C72.0033 123.191 73.8866 123.257 75.7531 123.321C80.9217 123.497 86.2233 123.655 91.1208 121.984C92.6682 121.443 94.1627 120.76 95.5856 119.944C96.0349 119.729 96.4307 119.415 96.7441 119.026C97.1177 118.491 97.1655 117.798 97.1622 117.144C97.1512 114.94 96.707 112.748 96.8125 110.546C96.8709 109.327 97.0977 108.109 96.9861 106.893C96.8315 105.513 96.2565 104.214 95.3398 103.175C94.4232 102.136 93.2096 101.407 91.8652 101.088C90.4759 100.788 89.0349 100.951 87.6204 101.088C83.9488 101.443 80.2616 101.609 76.5731 101.585C72.8045 101.561 69.0591 100.982 65.3092 100.922C64.2003 100.904 64.2227 101.248 63.8697 102.327C63.5445 103.321 63.2785 104.333 63.0732 105.358Z" fill="#16181D"/>
<path d="M48.3364 103.567C47.323 103.311 46.2788 103.199 45.2345 103.236C44.1372 103.297 43.0655 103.592 42.0905 104.102C41.1155 104.612 40.2596 105.324 39.5796 106.193C38.8997 107.061 38.4114 108.065 38.1471 109.138C37.8829 110.211 37.8487 111.328 38.0469 112.415C38.3 113.593 38.7136 114.73 39.276 115.793C40.0987 117.472 41.0853 119.148 42.6082 120.224C43.4991 120.853 44.5301 121.246 45.5489 121.632L53.5698 124.671C54.7497 125.118 55.9298 125.565 57.1215 125.98C63.1081 128.061 69.3496 129.309 75.6725 129.689C77.5985 129.804 79.5536 129.836 81.4324 129.395C81.8783 129.291 82.3539 129.135 82.6121 128.754C82.7649 128.486 82.8551 128.187 82.8756 127.879L83.3692 124.403C83.4387 123.914 83.5056 123.399 83.3272 122.938C83.1012 122.354 82.5344 121.987 81.994 121.675C76.7209 118.629 70.5639 116.948 66.1254 112.767C65.0805 111.783 64.2061 110.223 62.9366 109.554C61.497 108.796 59.8016 108.363 58.3135 107.665C55.0604 106.138 51.8621 104.382 48.3364 103.567Z" fill="#16181D"/>
<path opacity="0.1" d="M56.3441 108.252C59.1791 109.146 71.1486 115.336 73.2002 117.497C72.9252 117.597 63.5948 112.338 63.3148 112.253C60.7698 111.485 58.2108 110.712 55.794 109.588C55.3078 109.361 52.6354 108.298 52.7564 107.681C52.893 106.985 55.8408 108.094 56.3441 108.252Z" fill="#16181D"/>
<path d="M73.4539 54.2765L65.8208 60.1058C65.8208 60.1058 57.7663 60.3592 58.0385 65.5379C58.3106 70.7165 61.5342 95.2355 61.5342 95.2355L62.2336 103.672L75.5004 107.474C82.6685 109.528 90.2418 109.692 97.4909 107.948L95.9143 99.4845C95.9143 99.4845 102.298 61.0459 98.4524 59.3536C94.6065 57.6612 92.2028 58.1448 92.2028 58.1448L87.3821 53.9138L73.4539 54.2765Z" fill="#FFF7E6"/>
<path d="M96.0484 44.8605C96.0484 52.428 89.0914 51.2834 80.5096 51.2834C71.9277 51.2834 64.9707 52.428 64.9707 44.8605C64.9707 37.293 68.369 23.8792 80.5096 23.8792C93.0684 23.8792 96.0484 37.293 96.0484 44.8605Z" fill="#16181D"/>
<path d="M88.5872 47.4253C92.6706 43.3182 92.6706 36.6593 88.5872 32.5522C84.5038 28.4452 77.8833 28.4452 73.7999 32.5522C69.7165 36.6593 69.7165 43.3182 73.7999 47.4253C77.8833 51.5324 84.5038 51.5323 88.5872 47.4253Z" fill="#FFCC66"/>
<path d="M68.3765 39.7223H72.5121L74.3366 34.584L74.7014 39.7223H76.6781L77.7424 36.725L77.9552 39.7223H92.6427C92.6427 36.7697 91.4765 33.938 89.4007 31.8501C87.3249 29.7623 84.5095 28.5894 81.5739 28.5894H79.4452C76.5096 28.5894 73.6942 29.7623 71.6184 31.8501C69.5426 33.938 68.3765 36.7697 68.3765 39.7223Z" fill="#16181D"/>
<path d="M91.0005 55.4854H70.0884V80.8706H91.0005V55.4854Z" fill="#0037DB"/>
<path d="M71.2412 127.555L73.2079 132.703L93.8855 127.524L90.983 119.926L71.2412 127.555Z" fill="#FFCC66"/>
<path d="M72.4107 125.596L76.2835 135.734L76.2837 135.735C76.938 137.448 76.8889 139.353 76.1471 141.03C75.4052 142.707 74.0314 144.019 72.3278 144.678L72.1191 144.758L65.7783 128.159L72.4107 125.596Z" fill="#16181D"/>
<path d="M112.573 101.597C114.234 101.178 115.956 101.06 117.659 101.247C119.018 101.398 120.419 101.779 121.412 102.725C122.62 103.877 123.008 105.659 123.04 107.333C123.094 110.667 121.994 113.917 119.93 116.526C119.426 117.186 118.826 117.767 118.151 118.248C117.423 118.706 116.647 119.083 115.837 119.37L97.8748 126.496C93.1493 128.371 88.4072 130.251 83.4782 131.487C83.2103 131.617 82.9019 131.634 82.6209 131.536C82.3399 131.437 82.1094 131.23 81.98 130.961C81.9761 130.953 81.9722 130.944 81.9684 130.936C80.3947 128.675 79.0744 126.246 78.0316 123.693C77.9823 123.632 77.9481 123.56 77.9322 123.484C77.9162 123.407 77.9189 123.327 77.9399 123.252C77.9609 123.176 77.9997 123.107 78.053 123.05C78.1063 122.993 78.1726 122.949 78.2461 122.923L90.951 115.581C91.861 115.055 92.7812 114.522 93.5369 113.789C94.086 113.254 94.5356 112.624 94.8645 111.93C95.1278 111.377 95.1524 110.071 95.4888 109.662C95.8182 109.262 96.9448 109.23 97.4652 109.072C98.199 108.846 98.9177 108.573 99.6167 108.254C102.459 106.976 104.989 105.118 107.714 103.62C109.242 102.741 110.875 102.062 112.573 101.597Z" fill="#16181D"/>
<path opacity="0.1" d="M105.371 107.08C103.188 108.729 100.362 110.245 98.1989 111.937C97.4605 112.514 85.1525 119.474 84.9785 120.399C86.9968 120.741 99.8533 111.694 101.693 110.792C103.532 109.889 105.163 108.616 106.779 107.353C107.19 107.031 108.935 106.063 107.753 105.703C107.088 105.5 105.863 106.75 105.371 107.08Z" fill="#16181D"/>
<path d="M144.603 43.4486C148.752 43.4486 152.114 40.0663 152.114 35.894C152.114 31.7217 148.752 28.3394 144.603 28.3394C140.455 28.3394 137.092 31.7217 137.092 35.894C137.092 40.0663 140.455 43.4486 144.603 43.4486Z" fill="#F4F5F5"/>
<path d="M130.702 44.8016C133.612 44.8016 135.971 42.429 135.971 39.5021C135.971 36.5753 133.612 34.2026 130.702 34.2026C127.792 34.2026 125.433 36.5753 125.433 39.5021C125.433 42.429 127.792 44.8016 130.702 44.8016Z" fill="#F4F5F5"/>
<path d="M34.1837 41.3447C36.517 41.3447 38.4085 39.4422 38.4085 37.0954C38.4085 34.7486 36.517 32.8462 34.1837 32.8462C31.8505 32.8462 29.959 34.7486 29.959 37.0954C29.959 39.4422 31.8505 41.3447 34.1837 41.3447Z" fill="#F4F5F5"/>
<path d="M41.1394 44.2021C42.7762 44.2021 44.1031 42.8675 44.1031 41.2213C44.1031 39.575 42.7762 38.2405 41.1394 38.2405C39.5026 38.2405 38.1758 39.575 38.1758 41.2213C38.1758 42.8675 39.5026 44.2021 41.1394 44.2021Z" fill="#F4F5F5"/>
<path d="M82.1235 6.49632C83.907 6.49632 85.3529 5.04207 85.3529 3.24816C85.3529 1.45425 83.907 0 82.1235 0C80.3399 0 78.894 1.45425 78.894 3.24816C78.894 5.04207 80.3399 6.49632 82.1235 6.49632Z" fill="#F4F5F5"/>
<path opacity="0.17" d="M62.8774 71.6834L63.1661 69.4421C63.1661 69.4421 73.9345 70.2328 72.2519 72.8922C70.5693 75.5516 66.483 75.7933 66.483 75.7933L62.8774 71.6834Z" fill="#16181D"/>
<path d="M71.0058 61.9386C71.6226 62.0069 72.2168 62.2117 72.7456 62.5382C73.2744 62.8648 73.7248 63.3051 74.0644 63.8275C74.3739 64.3042 74.5844 64.8389 74.6832 65.3994C74.7821 65.96 74.7673 66.5349 74.6397 67.0895C74.5121 67.6442 74.2744 68.1672 73.9408 68.6271C73.6072 69.087 73.1846 69.4744 72.6984 69.7659C72.5202 69.8718 72.3341 69.9638 72.1418 70.0411L65.5229 90.4043C65.3312 90.8061 65.0623 91.1658 64.7319 91.4627C64.4014 91.7597 64.0158 91.988 63.5973 92.1346C63.1788 92.2811 62.7357 92.3431 62.2933 92.3168C61.8509 92.2905 61.4181 92.1766 61.0197 91.9815C60.6212 91.7864 60.2651 91.514 59.9717 91.18C59.6782 90.846 59.4533 90.4569 59.3099 90.0352C59.1665 89.6135 59.1073 89.1674 59.1359 88.7227C59.1644 88.2779 59.2801 87.8432 59.4763 87.4435L66.5152 67.3064C66.3235 66.6401 66.298 65.9366 66.441 65.258C66.584 64.5795 66.8911 63.9469 67.3351 63.4161C67.7791 62.8854 68.3463 62.4729 68.9865 62.2152C69.6268 61.9575 70.3203 61.8625 71.0058 61.9386Z" fill="#FFCC66"/>
<path d="M62.9761 69.6333C62.9761 69.6333 66.7687 76.1506 72.2518 72.8924L66.938 93.3452H62.461L57.8296 92.4752L59.1264 84.0249L62.9761 69.6333Z" fill="#FFF7E6"/>
<path d="M90.0564 74.0876L86.9146 69.7492C86.9146 69.7492 88.4246 65.2493 94.2797 66.8949C94.2797 66.8949 98.0056 75.2831 90.0564 74.0876Z" fill="#FFF7E6"/>
<path opacity="0.17" d="M90.0564 74.0876L86.9146 69.7492C86.9146 69.7492 88.4246 65.2493 94.2797 66.8949C94.2797 66.8949 98.0056 75.2831 90.0564 74.0876Z" fill="#16181D"/>
<path d="M90.8883 58.9301C91.7947 59.3539 92.5197 60.0909 92.9315 61.007C93.3432 61.923 93.4144 62.9574 93.1319 63.9217L100.171 84.0588C100.367 84.4585 100.483 84.8933 100.511 85.3381C100.54 85.7829 100.481 86.2289 100.337 86.6507C100.194 87.0724 99.9691 87.4615 99.6757 87.7955C99.3822 88.1295 99.0261 88.4019 98.6276 88.597C98.2292 88.7921 97.7963 88.9061 97.3539 88.9324C96.9115 88.9586 96.4684 88.8967 96.0498 88.7501C95.6313 88.6035 95.2458 88.3752 94.9153 88.0782C94.5848 87.7812 94.316 87.4215 94.1242 87.0196L87.5054 66.6565C87.3131 66.5792 87.127 66.4872 86.9487 66.3813C86.4626 66.0897 86.04 65.7024 85.7064 65.2424C85.3728 64.7825 85.1351 64.2595 85.0075 63.7049C84.8799 63.1502 84.8651 62.5753 84.964 62.0148C85.0628 61.4542 85.2733 60.9196 85.5828 60.4429C85.9224 59.9205 86.3728 59.4802 86.9016 59.1536C87.4304 58.827 88.0246 58.6222 88.6414 58.5539C89.4106 58.4662 90.1888 58.5965 90.8883 58.9301Z" fill="#FFCC66"/>
<path d="M86.9146 69.7494C86.9146 69.7494 92.0983 72.913 94.2797 66.895L101.584 86.2395L99.4138 90.0576L99.0999 90.0839C97.805 90.1925 96.5033 89.9833 95.3066 89.4743C94.1098 88.9654 93.0538 88.1718 92.2292 87.1619C90.5472 85.1019 89.4023 82.6528 88.8977 80.0359L86.9146 69.7494Z" fill="#FFF7E6"/>
</g>
<defs>
<clipPath id="clip0">
<rect width="156" height="145" fill="white"/>
</clipPath>
</defs>
</svg>
